<svg id="Group_26" data-name="Group 26" xmlns="http://www.w3.org/2000/svg" xmlns:xlink="http://www.w3.org/1999/xlink" width="64" height="64.874" viewBox="0 0 64 64.874">
  <defs>
    <clipPath id="clip-path">
      <rect id="Rectangle_19" data-name="Rectangle 19" width="64" height="64.874" fill="none"/>
    </clipPath>
  </defs>
  <g id="Group_25" data-name="Group 25" clip-path="url(#clip-path)">
    <path id="Path_4" data-name="Path 4" d="M27.057,16.694a16.3,16.3,0,0,1,7.25-1.183c3.179.3,1.958,4.514.955,6.38a25.872,25.872,0,0,1-9.567,9.669c-.506.288-1.359.422-1.792.743-.312.231-.107-.258-.066.157,0,.008.168-.423.257-.586,1.039-1.931,3.069-3.543,4.695-4.948a55.416,55.416,0,0,1,6.821-5.078,64.236,64.236,0,0,1,7.9-4.533c1.166-.515,2.884-1.292,4.184-.838a1.392,1.392,0,0,1,.808,2.1c-1.491,2.719-5.918,2.877-8.509,2.391-.958-.181-1.368,1.288-.4,1.468,3.166.595,7.079.3,9.478-2.132,1.569-1.588,1.658-4.231-.667-5.181-2.895-1.181-6.716,1.3-9.1,2.683a80.564,80.564,0,0,0-9.378,6.221,32.58,32.58,0,0,0-6.834,6.593c-.79,1.141-1.263,3.278.811,3.208s4.244-1.977,5.756-3.215a29.808,29.808,0,0,0,6.273-6.859c1.511-2.36,3.278-6.74.651-8.994-1.173-1.006-3.139-.9-4.58-.742a20.569,20.569,0,0,0-5.352,1.21c-.9.362-.5,1.835.406,1.468" transform="translate(13.8 8.564)"/>
    <path id="Path_5" data-name="Path 5" d="M15.937,16.694a16.3,16.3,0,0,1,7.25-1.183c3.179.3,1.958,4.514.955,6.38a25.86,25.86,0,0,1-9.567,9.669c-.506.288-1.357.422-1.79.743-.313.231-.108-.258-.068.157,0,.008.17-.423.257-.586,1.04-1.931,3.069-3.543,4.695-4.948a55.415,55.415,0,0,1,6.821-5.078,64.236,64.236,0,0,1,7.9-4.533c1.166-.515,2.884-1.292,4.184-.838a1.392,1.392,0,0,1,.808,2.1c-1.491,2.719-5.918,2.877-8.509,2.391-.958-.181-1.368,1.288-.4,1.468,3.166.595,7.079.3,9.478-2.132,1.569-1.588,1.658-4.231-.667-5.181-2.895-1.181-6.716,1.3-9.1,2.683a80.564,80.564,0,0,0-9.378,6.221,32.58,32.58,0,0,0-6.834,6.593c-.79,1.141-1.263,3.278.813,3.208s4.242-1.977,5.754-3.215a29.808,29.808,0,0,0,6.273-6.859c1.511-2.36,3.278-6.74.651-8.994-1.173-1.006-3.139-.9-4.58-.742a20.569,20.569,0,0,0-5.352,1.21c-.9.362-.5,1.835.405,1.468" transform="translate(6.955 8.564)"/>
    <path id="Path_6" data-name="Path 6" d="M.952,17.283q2.881-.613,5.788-1.1,1.212-.2,2.428-.375c1.06-.152,2.517-.567,3.586-.244,2.7.821.872,5.257-.044,6.814a25.905,25.905,0,0,1-9.6,9.326,15.51,15.51,0,0,1-1.567.565c-.142.058.023.165.05.1a5.014,5.014,0,0,1,.357-.724,22.826,22.826,0,0,1,4.742-4.9,55.71,55.71,0,0,1,6.822-5.039,55.292,55.292,0,0,1,8.205-4.633c1.074-.438,2.553-1.044,3.716-.637a1.4,1.4,0,0,1,.771,2.155c-1.551,2.653-5.879,2.817-8.472,2.331-.958-.179-1.368,1.288-.405,1.468,3.171.595,7.1.3,9.5-2.147,1.556-1.59,1.627-4.221-.685-5.165-2.788-1.139-6.433,1.157-8.745,2.48a79.92,79.92,0,0,0-9.373,6.147A35.5,35.5,0,0,0,1,30.36c-.795,1.084-1.63,3.4.551,3.435,1.966.029,4.078-1.8,5.506-2.937A30.717,30.717,0,0,0,13.4,24.133c1.591-2.351,3.431-6.375,1.336-8.977-1.407-1.75-3.816-1.12-5.732-.848-2.838.4-5.658.911-8.46,1.507-.958.2-.553,1.672.405,1.468" transform="translate(0 8.599)"/>
    <path id="Path_7" data-name="Path 7" d="M27.057,2.78A16.279,16.279,0,0,1,34.307,1.6c3.179.3,1.958,4.514.955,6.38a25.872,25.872,0,0,1-9.567,9.669c-.506.288-1.359.422-1.792.743-.312.231-.107-.258-.066.157,0,.008.168-.423.257-.586,1.039-1.931,3.069-3.544,4.695-4.948a55.416,55.416,0,0,1,6.821-5.078,64.237,64.237,0,0,1,7.9-4.533c1.166-.515,2.884-1.292,4.184-.838a1.392,1.392,0,0,1,.808,2.1C47.01,7.378,42.583,7.536,39.992,7.05c-.958-.181-1.368,1.288-.4,1.468,3.166.595,7.079.3,9.478-2.134C50.635,4.8,50.724,2.155,48.4,1.2,45.5.024,41.683,2.505,39.3,3.888a80.563,80.563,0,0,0-9.378,6.221A32.573,32.573,0,0,0,23.092,16.7c-.79,1.142-1.263,3.279.811,3.21s4.244-1.977,5.756-3.215a29.808,29.808,0,0,0,6.273-6.859c1.511-2.36,3.278-6.74.651-8.994C35.41-.163,33.444-.055,32,.1a20.569,20.569,0,0,0-5.352,1.21c-.9.362-.5,1.835.406,1.468" transform="translate(13.8 0)"/>
    <path id="Path_8" data-name="Path 8" d="M15.937,2.78A16.279,16.279,0,0,1,23.187,1.6c3.179.3,1.958,4.512.955,6.38a25.86,25.86,0,0,1-9.567,9.669c-.506.288-1.357.422-1.79.743-.313.231-.108-.258-.068.157,0,.008.17-.423.257-.586,1.04-1.931,3.069-3.544,4.695-4.948a55.416,55.416,0,0,1,6.821-5.078,64.238,64.238,0,0,1,7.9-4.533c1.166-.515,2.884-1.292,4.184-.838a1.392,1.392,0,0,1,.808,2.1C35.89,7.378,31.463,7.536,28.872,7.05c-.958-.181-1.368,1.288-.4,1.468,3.166.595,7.079.3,9.478-2.134C39.515,4.8,39.6,2.155,37.279,1.2c-2.895-1.181-6.716,1.3-9.1,2.683a80.563,80.563,0,0,0-9.378,6.221A32.573,32.573,0,0,0,11.972,16.7c-.79,1.142-1.263,3.279.813,3.21s4.242-1.977,5.754-3.215a29.808,29.808,0,0,0,6.273-6.859c1.511-2.36,3.278-6.74.651-8.994C24.29-.163,22.324-.055,20.883.1a20.569,20.569,0,0,0-5.352,1.21c-.9.362-.5,1.835.405,1.468" transform="translate(6.955 0)"/>
    <path id="Path_9" data-name="Path 9" d="M.952,3.368q2.881-.613,5.788-1.1,1.212-.2,2.428-.375c1.06-.152,2.517-.567,3.586-.244,2.7.821.872,5.257-.044,6.814a25.905,25.905,0,0,1-9.6,9.326,15.93,15.93,0,0,1-1.567.567c-.142.057.023.163.05.1a5.014,5.014,0,0,1,.357-.724,22.826,22.826,0,0,1,4.742-4.9A55.709,55.709,0,0,1,13.517,7.8a55.292,55.292,0,0,1,8.205-4.633c1.074-.438,2.553-1.044,3.716-.637a1.4,1.4,0,0,1,.771,2.155C24.658,7.335,20.33,7.5,17.737,7.014c-.958-.179-1.368,1.288-.405,1.468,3.171.595,7.1.3,9.5-2.147,1.556-1.59,1.627-4.221-.685-5.165C23.354.032,19.71,2.327,17.4,3.651A80.125,80.125,0,0,0,8.025,9.8,35.5,35.5,0,0,0,1,16.445c-.795,1.084-1.63,3.4.551,3.435,1.966.029,4.078-1.8,5.506-2.937A30.717,30.717,0,0,0,13.4,10.218c1.591-2.351,3.431-6.375,1.336-8.977C13.332-.509,10.923.121,9.007.392,6.168.794,3.349,1.3.546,1.9c-.958.2-.553,1.672.405,1.468" transform="translate(0 0.034)"/>
    <path id="Path_10" data-name="Path 10" d="M27.057,30.609a16.3,16.3,0,0,1,7.25-1.183c3.179.3,1.958,4.512.955,6.38a25.872,25.872,0,0,1-9.567,9.669c-.506.288-1.359.422-1.792.743-.312.231-.107-.258-.066.157,0,.008.168-.423.257-.586,1.039-1.931,3.069-3.544,4.695-4.948a55.418,55.418,0,0,1,6.821-5.078,64.238,64.238,0,0,1,7.9-4.533c1.166-.515,2.884-1.292,4.184-.838a1.392,1.392,0,0,1,.808,2.1c-1.491,2.719-5.918,2.877-8.509,2.391-.958-.181-1.368,1.288-.4,1.468,3.166.595,7.079.3,9.478-2.134,1.569-1.586,1.658-4.229-.667-5.179-2.895-1.181-6.716,1.3-9.1,2.683a80.564,80.564,0,0,0-9.378,6.221,32.572,32.572,0,0,0-6.834,6.591c-.79,1.142-1.263,3.279.811,3.21s4.244-1.977,5.756-3.215a29.808,29.808,0,0,0,6.273-6.859c1.511-2.36,3.278-6.74.651-8.994-1.173-1.006-3.139-.9-4.58-.742a20.569,20.569,0,0,0-5.352,1.21c-.9.362-.5,1.835.406,1.468" transform="translate(13.8 17.129)"/>
    <path id="Path_11" data-name="Path 11" d="M15.937,30.609a16.3,16.3,0,0,1,7.25-1.183c3.179.3,1.958,4.512.955,6.38a25.86,25.86,0,0,1-9.567,9.669c-.506.288-1.357.422-1.79.743-.313.231-.108-.258-.068.157,0,.008.17-.423.257-.586,1.04-1.931,3.069-3.544,4.695-4.948a55.418,55.418,0,0,1,6.821-5.078,64.238,64.238,0,0,1,7.9-4.533c1.166-.515,2.884-1.292,4.184-.838a1.392,1.392,0,0,1,.808,2.1c-1.491,2.719-5.918,2.877-8.509,2.391-.958-.181-1.368,1.288-.4,1.468,3.166.595,7.079.3,9.478-2.134,1.569-1.586,1.658-4.229-.667-5.179-2.895-1.181-6.716,1.3-9.1,2.683a80.563,80.563,0,0,0-9.378,6.221,32.572,32.572,0,0,0-6.834,6.591c-.79,1.142-1.263,3.279.813,3.21s4.242-1.977,5.754-3.215a29.808,29.808,0,0,0,6.273-6.859c1.511-2.36,3.278-6.74.651-8.994-1.173-1.006-3.139-.9-4.58-.742a20.569,20.569,0,0,0-5.352,1.21c-.9.362-.5,1.835.405,1.468" transform="translate(6.955 17.129)"/>
    <path id="Path_12" data-name="Path 12" d="M.952,31.2q2.881-.613,5.788-1.1,1.212-.2,2.428-.375c1.06-.152,2.517-.567,3.586-.244,2.7.821.872,5.257-.044,6.814a25.905,25.905,0,0,1-9.6,9.326,15.925,15.925,0,0,1-1.567.567c-.142.057.023.163.05.1a5.013,5.013,0,0,1,.357-.724,22.826,22.826,0,0,1,4.742-4.9,55.708,55.708,0,0,1,6.822-5.039,55.291,55.291,0,0,1,8.205-4.633c1.074-.438,2.553-1.044,3.716-.637a1.4,1.4,0,0,1,.771,2.155c-1.551,2.653-5.879,2.817-8.472,2.331-.958-.179-1.368,1.288-.405,1.469,3.171.595,7.1.3,9.5-2.147,1.556-1.59,1.627-4.221-.685-5.165-2.788-1.139-6.433,1.157-8.745,2.48a80.126,80.126,0,0,0-9.373,6.147A35.5,35.5,0,0,0,1,44.275c-.795,1.084-1.63,3.4.551,3.435,1.966.029,4.078-1.8,5.506-2.937A30.717,30.717,0,0,0,13.4,38.048c1.591-2.351,3.431-6.375,1.336-8.977-1.407-1.75-3.816-1.12-5.732-.848-2.838.4-5.658.911-8.46,1.507-.958.2-.553,1.672.405,1.468" transform="translate(0 17.164)"/>
  </g>
</svg>
