<?xml version="1.0" encoding="utf-8"?>
<!-- Generator: Adobe Illustrator 26.4.1, SVG Export Plug-In . SVG Version: 6.00 Build 0)  -->
<svg version="1.1" id="圖層_1" xmlns="http://www.w3.org/2000/svg" xmlns:xlink="http://www.w3.org/1999/xlink" x="0px" y="0px"
	 viewBox="0 0 15408.72 8667.4" style="enable-background:new 0 0 15408.72 8667.4;" xml:space="preserve">
<style type="text/css">
	.st0{fill:#040000;}
</style>
<g>
	<g>
		<path class="st0" d="M2244.33,3700.2c0,546.36-365.72,872.42-934.11,872.42H843.17c-52.87,0-79.31-4.4-110.16-17.63l-8.81,8.82
			c8.81,22.03,13.22,57.27,13.22,110.15v1233.73H279.18v-3084.3h991.38C1869.81,2823.37,2244.33,3149.43,2244.33,3700.2z
			 M733.01,4158.44c30.85-13.22,57.29-17.63,110.16-17.63h431.8c312.84,0,475.87-171.85,475.87-440.62s-163.03-445.02-475.87-445.02
			h-431.8c-52.87,0-79.31-4.4-110.16-17.63l-8.81,8.82c8.81,22.03,13.22,57.27,13.22,114.56v674.13c0,57.29-4.42,92.53-13.22,114.56
			L733.01,4158.44z"/>
		<path class="st0" d="M3945.03,2757.28h44.06l1467.25,3150.4h-515.52l-361.31-810.74H3354.61l-361.3,810.74h-515.52
			L3945.03,2757.28z M3482.39,4713.61c39.65-4.4,114.56-8.81,246.74-8.81H4205c132.19,0,207.09,4.4,246.75,8.81l4.4-4.4
			c-35.24-44.06-83.72-114.56-141-251.16l-229.12-541.95c-61.68-149.81-101.34-277.59-110.15-352.49h-17.63
			c-8.82,74.9-48.47,202.69-110.16,352.49l-229.12,541.95c-57.28,136.59-105.74,207.09-141,251.16L3482.39,4713.61z"/>
		<path class="st0" d="M8439.21,2845.41L6734.02,5524.35l8.82,13.21c61.68-57.28,127.77-79.31,277.58-79.31h1409.97l-233.53,449.42
			H5989.38l-13.21-22.03l1709.59-2674.54l-8.82-13.21c-66.09,48.47-145.4,74.9-339.27,74.9H6161.22l224.71-449.43h2044.46
			L8439.21,2845.41z"/>
		<path class="st0" d="M11444.11,2845.41L9738.93,5524.35l8.82,13.21c61.68-57.28,127.77-79.31,277.58-79.31h1409.97l-233.53,449.42
			H8994.28l-13.21-22.03l1709.59-2674.54l-8.82-13.21c-66.09,48.47-145.4,74.9-339.27,74.9H9166.13l224.71-449.43h2044.46
			L11444.11,2845.41z"/>
		<path class="st0" d="M15092.36,4365.52c0,934.11-674.13,1608.25-1608.24,1608.25c-934.11,0-1608.24-674.14-1608.24-1608.25
			c0-934.1,674.13-1608.24,1608.24-1608.24C14418.23,2757.28,15092.36,3431.42,15092.36,4365.52z M13484.12,5506.72
			c647.71,0,1105.94-475.86,1105.94-1141.2c0-665.32-458.23-1141.19-1105.94-1141.19c-647.71,0-1105.94,475.86-1105.94,1141.19
			C12378.18,5030.86,12836.41,5506.72,13484.12,5506.72z"/>
	</g>
</g>
</svg>
